  0
SECTION
  2
BLOCKS
  0
ENDSEC
  0
SECTION
  2
ENTITIES
  0
LINE
  8
0
 10
-0.000900269
 20
-15.0288
 11
0.944565
 21
-14.9991
  0
LINE
  8
0
 10
0.944565
 20
-14.9991
 11
1.88449
 21
-14.9102
  0
LINE
  8
0
 10
1.88449
 20
-14.9102
 11
2.817
 21
-14.7624
  0
LINE
  8
0
 10
2.817
 20
-14.7624
 11
3.73839
 21
-14.5564
  0
LINE
  8
0
 10
3.73839
 20
-14.5564
 11
4.645
 21
-14.2929
  0
LINE
  8
0
 10
4.645
 20
-14.2929
 11
5.53331
 21
-13.9731
  0
LINE
  8
0
 10
5.53331
 20
-13.9731
 11
5.57651
 21
-13.9544
  0
LINE
  8
0
 10
5.57651
 20
-13.9544
 11
5.59288
 21
-13.9354
  0
LINE
  8
0
 10
5.59288
 20
-13.9354
 11
5.86537
 21
-12.9184
  0
LINE
  8
0
 10
5.86537
 20
-12.9184
 11
5.8625
 21
-12.8965
  0
LINE
  8
0
 10
5.8625
 20
-12.8965
 11
3.32692
 21
-8.50476
  0
LINE
  8
0
 10
3.32692
 20
-8.50476
 11
5.70187
 21
-7.13358
  0
LINE
  8
0
 10
5.70187
 20
-7.13358
 11
8.23747
 21
-11.5253
  0
LINE
  8
0
 10
8.23747
 20
-11.5253
 11
8.25496
 21
-11.5388
  0
LINE
  8
0
 10
8.25496
 20
-11.5388
 11
9.26518
 21
-11.8095
  0
LINE
  8
0
 10
9.26518
 20
-11.8095
 11
9.2903
 21
-11.8044
  0
LINE
  8
0
 10
9.2903
 20
-11.8044
 11
9.5804
 21
-11.5793
  0
LINE
  8
0
 10
9.5804
 20
-11.5793
 11
10.2886
 21
-10.9549
  0
LINE
  8
0
 10
10.2886
 20
-10.9549
 11
10.9561
 21
-10.2872
  0
LINE
  8
0
 10
10.9561
 20
-10.2872
 11
11.5804
 21
-9.57901
  0
LINE
  8
0
 10
11.5804
 20
-9.57901
 11
12.1591
 21
-8.83296
  0
LINE
  8
0
 10
12.1591
 20
-8.83296
 11
12.6897
 21
-8.05206
  0
LINE
  8
0
 10
12.6897
 20
-8.05206
 11
13.1703
 21
-7.23938
  0
LINE
  8
0
 10
13.1703
 20
-7.23938
 11
13.5988
 21
-6.39813
  0
LINE
  8
0
 10
13.5988
 20
-6.39813
 11
13.9737
 21
-5.53162
  0
LINE
  8
0
 10
13.9737
 20
-5.53162
 11
14.2935
 21
-4.6433
  0
LINE
  8
0
 10
14.2935
 20
-4.6433
 11
14.5568
 21
-3.73663
  0
LINE
  8
0
 10
14.5568
 20
-3.73663
 11
14.7627
 21
-2.81522
  0
LINE
  8
0
 10
14.7627
 20
-2.81522
 11
14.8689
 21
-2.14496
  0
LINE
  8
0
 10
14.8689
 20
-2.14496
 11
14.8608
 21
-2.12009
  0
LINE
  8
0
 10
14.8608
 20
-2.12009
 11
14.1204
 21
-1.37962
  0
LINE
  8
0
 10
14.1204
 20
-1.37962
 11
14.1
 21
-1.3712
  0
LINE
  8
0
 10
14.1
 20
-1.3712
 11
9.02879
 21
-1.3712
  0
LINE
  8
0
 10
9.02879
 20
-1.3712
 11
9.02879
 21
1.3712
  0
LINE
  8
0
 10
9.02879
 20
1.3712
 11
14.1
 21
1.3712
  0
LINE
  8
0
 10
14.1
 20
1.3712
 11
14.1204
 21
1.37962
  0
LINE
  8
0
 10
14.1204
 20
1.37962
 11
14.8608
 21
2.12009
  0
LINE
  8
0
 10
14.8608
 20
2.12009
 11
14.8689
 21
2.14496
  0
LINE
  8
0
 10
14.8689
 20
2.14496
 11
14.7624
 21
2.817
  0
LINE
  8
0
 10
14.7624
 20
2.817
 11
14.5564
 21
3.73839
  0
LINE
  8
0
 10
14.5564
 20
3.73839
 11
14.2929
 21
4.645
  0
LINE
  8
0
 10
14.2929
 20
4.645
 11
13.9731
 21
5.53331
  0
LINE
  8
0
 10
13.9731
 20
5.53331
 11
13.5981
 21
6.39977
  0
LINE
  8
0
 10
13.5981
 20
6.39977
 11
13.1694
 21
7.24097
  0
LINE
  8
0
 10
13.1694
 20
7.24097
 11
12.6887
 21
8.05359
  0
LINE
  8
0
 10
12.6887
 20
8.05359
 11
12.158
 21
8.83443
  0
LINE
  8
0
 10
12.158
 20
8.83443
 11
11.5793
 21
9.5804
  0
LINE
  8
0
 10
11.5793
 20
9.5804
 11
10.9549
 21
10.2886
  0
LINE
  8
0
 10
10.9549
 20
10.2886
 11
10.2872
 21
10.9561
  0
LINE
  8
0
 10
10.2872
 20
10.9561
 11
9.57901
 21
11.5804
  0
LINE
  8
0
 10
9.57901
 20
11.5804
 11
9.2903
 21
11.8044
  0
LINE
  8
0
 10
9.2903
 20
11.8044
 11
9.26518
 21
11.8095
  0
LINE
  8
0
 10
9.26518
 20
11.8095
 11
8.25496
 21
11.5388
  0
LINE
  8
0
 10
8.25496
 20
11.5388
 11
8.23747
 21
11.5253
  0
LINE
  8
0
 10
8.23747
 20
11.5253
 11
5.70187
 21
7.13358
  0
LINE
  8
0
 10
5.70187
 20
7.13358
 11
3.32692
 21
8.50476
  0
LINE
  8
0
 10
3.32692
 20
8.50476
 11
5.8625
 21
12.8965
  0
LINE
  8
0
 10
5.8625
 20
12.8965
 11
5.86537
 21
12.9184
  0
LINE
  8
0
 10
5.86537
 20
12.9184
 11
5.59288
 21
13.9354
  0
LINE
  8
0
 10
5.59288
 20
13.9354
 11
5.57651
 21
13.9544
  0
LINE
  8
0
 10
5.57651
 20
13.9544
 11
5.53162
 21
13.9737
  0
LINE
  8
0
 10
5.53162
 20
13.9737
 11
4.6433
 21
14.2935
  0
LINE
  8
0
 10
4.6433
 20
14.2935
 11
3.73663
 21
14.5568
  0
LINE
  8
0
 10
3.73663
 20
14.5568
 11
2.81522
 21
14.7627
  0
LINE
  8
0
 10
2.81522
 20
14.7627
 11
1.88271
 21
14.9104
  0
LINE
  8
0
 10
1.88271
 20
14.9104
 11
0.942749
 21
14.9992
  0
LINE
  8
0
 10
0.942749
 20
14.9992
 11
-0.000900269
 21
15.0288
  0
LINE
  8
0
 10
-0.000900269
 20
15.0288
 11
-0.944565
 21
14.9991
  0
LINE
  8
0
 10
-0.944565
 20
14.9991
 11
-1.88449
 21
14.9102
  0
LINE
  8
0
 10
-1.88449
 20
14.9102
 11
-2.817
 21
14.7624
  0
LINE
  8
0
 10
-2.817
 20
14.7624
 11
-3.73839
 21
14.5564
  0
LINE
  8
0
 10
-3.73839
 20
14.5564
 11
-4.645
 21
14.2929
  0
LINE
  8
0
 10
-4.645
 20
14.2929
 11
-5.53331
 21
13.9731
  0
LINE
  8
0
 10
-5.53331
 20
13.9731
 11
-5.57651
 21
13.9544
  0
LINE
  8
0
 10
-5.57651
 20
13.9544
 11
-5.59288
 21
13.9354
  0
LINE
  8
0
 10
-5.59288
 20
13.9354
 11
-5.86537
 21
12.9184
  0
LINE
  8
0
 10
-5.86537
 20
12.9184
 11
-5.8625
 21
12.8965
  0
LINE
  8
0
 10
-5.8625
 20
12.8965
 11
-3.32692
 21
8.50476
  0
LINE
  8
0
 10
-3.32692
 20
8.50476
 11
-5.70187
 21
7.13358
  0
LINE
  8
0
 10
-5.70187
 20
7.13358
 11
-8.23747
 21
11.5253
  0
LINE
  8
0
 10
-8.23747
 20
11.5253
 11
-8.25496
 21
11.5388
  0
LINE
  8
0
 10
-8.25496
 20
11.5388
 11
-9.26518
 21
11.8095
  0
LINE
  8
0
 10
-9.26518
 20
11.8095
 11
-9.2903
 21
11.8044
  0
LINE
  8
0
 10
-9.2903
 20
11.8044
 11
-9.5804
 21
11.5793
  0
LINE
  8
0
 10
-9.5804
 20
11.5793
 11
-10.2886
 21
10.9549
  0
LINE
  8
0
 10
-10.2886
 20
10.9549
 11
-10.9561
 21
10.2872
  0
LINE
  8
0
 10
-10.9561
 20
10.2872
 11
-11.5804
 21
9.57901
  0
LINE
  8
0
 10
-11.5804
 20
9.57901
 11
-12.1591
 21
8.83296
  0
LINE
  8
0
 10
-12.1591
 20
8.83296
 11
-12.6897
 21
8.05206
  0
LINE
  8
0
 10
-12.6897
 20
8.05206
 11
-13.1703
 21
7.23938
  0
LINE
  8
0
 10
-13.1703
 20
7.23938
 11
-13.5988
 21
6.39813
  0
LINE
  8
0
 10
-13.5988
 20
6.39813
 11
-13.9737
 21
5.53162
  0
LINE
  8
0
 10
-13.9737
 20
5.53162
 11
-14.2935
 21
4.6433
  0
LINE
  8
0
 10
-14.2935
 20
4.6433
 11
-14.5568
 21
3.73663
  0
LINE
  8
0
 10
-14.5568
 20
3.73663
 11
-14.7627
 21
2.81522
  0
LINE
  8
0
 10
-14.7627
 20
2.81522
 11
-14.8689
 21
2.14496
  0
LINE
  8
0
 10
-14.8689
 20
2.14496
 11
-14.8608
 21
2.12009
  0
LINE
  8
0
 10
-14.8608
 20
2.12009
 11
-14.1204
 21
1.37962
  0
LINE
  8
0
 10
-14.1204
 20
1.37962
 11
-14.1
 21
1.3712
  0
LINE
  8
0
 10
-14.1
 20
1.3712
 11
-9.02879
 21
1.3712
  0
LINE
  8
0
 10
-9.02879
 20
1.3712
 11
-9.02879
 21
-1.37119
  0
LINE
  8
0
 10
-9.02879
 20
-1.37119
 11
-14.1
 21
-1.37119
  0
LINE
  8
0
 10
-14.1
 20
-1.37119
 11
-14.1204
 21
-1.37961
  0
LINE
  8
0
 10
-14.1204
 20
-1.37961
 11
-14.8608
 21
-2.12007
  0
LINE
  8
0
 10
-14.8608
 20
-2.12007
 11
-14.8689
 21
-2.14494
  0
LINE
  8
0
 10
-14.8689
 20
-2.14494
 11
-14.7624
 21
-2.817
  0
LINE
  8
0
 10
-14.7624
 20
-2.817
 11
-14.5564
 21
-3.73839
  0
LINE
  8
0
 10
-14.5564
 20
-3.73839
 11
-14.2929
 21
-4.645
  0
LINE
  8
0
 10
-14.2929
 20
-4.645
 11
-13.9731
 21
-5.53331
  0
LINE
  8
0
 10
-13.9731
 20
-5.53331
 11
-13.5981
 21
-6.39977
  0
LINE
  8
0
 10
-13.5981
 20
-6.39977
 11
-13.1694
 21
-7.24097
  0
LINE
  8
0
 10
-13.1694
 20
-7.24097
 11
-12.6887
 21
-8.05359
  0
LINE
  8
0
 10
-12.6887
 20
-8.05359
 11
-12.158
 21
-8.83443
  0
LINE
  8
0
 10
-12.158
 20
-8.83443
 11
-11.5793
 21
-9.5804
  0
LINE
  8
0
 10
-11.5793
 20
-9.5804
 11
-10.9549
 21
-10.2886
  0
LINE
  8
0
 10
-10.9549
 20
-10.2886
 11
-10.2872
 21
-10.9561
  0
LINE
  8
0
 10
-10.2872
 20
-10.9561
 11
-9.57901
 21
-11.5804
  0
LINE
  8
0
 10
-9.57901
 20
-11.5804
 11
-9.2903
 21
-11.8044
  0
LINE
  8
0
 10
-9.2903
 20
-11.8044
 11
-9.26518
 21
-11.8095
  0
LINE
  8
0
 10
-9.26518
 20
-11.8095
 11
-8.25496
 21
-11.5388
  0
LINE
  8
0
 10
-8.25496
 20
-11.5388
 11
-8.23747
 21
-11.5253
  0
LINE
  8
0
 10
-8.23747
 20
-11.5253
 11
-5.70187
 21
-7.13358
  0
LINE
  8
0
 10
-5.70187
 20
-7.13358
 11
-3.32692
 21
-8.50476
  0
LINE
  8
0
 10
-3.32692
 20
-8.50476
 11
-5.8625
 21
-12.8965
  0
LINE
  8
0
 10
-5.8625
 20
-12.8965
 11
-5.86537
 21
-12.9184
  0
LINE
  8
0
 10
-5.86537
 20
-12.9184
 11
-5.59288
 21
-13.9354
  0
LINE
  8
0
 10
-5.59288
 20
-13.9354
 11
-5.57651
 21
-13.9544
  0
LINE
  8
0
 10
-5.57651
 20
-13.9544
 11
-5.53162
 21
-13.9737
  0
LINE
  8
0
 10
-5.53162
 20
-13.9737
 11
-4.6433
 21
-14.2935
  0
LINE
  8
0
 10
-4.6433
 20
-14.2935
 11
-3.73663
 21
-14.5568
  0
LINE
  8
0
 10
-3.73663
 20
-14.5568
 11
-2.81522
 21
-14.7627
  0
LINE
  8
0
 10
-2.81522
 20
-14.7627
 11
-1.88271
 21
-14.9104
  0
LINE
  8
0
 10
-1.88271
 20
-14.9104
 11
-0.942749
 21
-14.9992
  0
LINE
  8
0
 10
-0.942749
 20
-14.9992
 11
-0.000900269
 21
-15.0288
  0
LINE
  8
0
 10
-0.186676
 20
-2.96532
 11
-0.372437
 21
-2.94774
  0
LINE
  8
0
 10
-0.372437
 20
-2.94774
 11
-0.556656
 21
-2.91856
  0
LINE
  8
0
 10
-0.556656
 20
-2.91856
 11
-0.738998
 21
-2.87781
  0
LINE
  8
0
 10
-0.738998
 20
-2.87781
 11
-0.91806
 21
-2.82579
  0
LINE
  8
0
 10
-0.91806
 20
-2.82579
 11
-1.09378
 21
-2.76253
  0
LINE
  8
0
 10
-1.09378
 20
-2.76253
 11
-1.26498
 21
-2.68843
  0
LINE
  8
0
 10
-1.26498
 20
-2.68843
 11
-1.43134
 21
-2.60367
  0
LINE
  8
0
 10
-1.43134
 20
-2.60367
 11
-1.59212
 21
-2.50859
  0
LINE
  8
0
 10
-1.59212
 20
-2.50859
 11
-1.74646
 21
-2.40372
  0
LINE
  8
0
 10
-1.74646
 20
-2.40372
 11
-1.89386
 21
-2.28937
  0
LINE
  8
0
 10
-1.89386
 20
-2.28937
 11
-2.03381
 21
-2.16599
  0
LINE
  8
0
 10
-2.03381
 20
-2.16599
 11
-2.16599
 21
-2.03381
  0
LINE
  8
0
 10
-2.16599
 20
-2.03381
 11
-2.28937
 21
-1.89386
  0
LINE
  8
0
 10
-2.28937
 20
-1.89386
 11
-2.40372
 21
-1.74646
  0
LINE
  8
0
 10
-2.40372
 20
-1.74646
 11
-2.50859
 21
-1.59212
  0
LINE
  8
0
 10
-2.50859
 20
-1.59212
 11
-2.60367
 21
-1.43134
  0
LINE
  8
0
 10
-2.60367
 20
-1.43134
 11
-2.68843
 21
-1.26498
  0
LINE
  8
0
 10
-2.68843
 20
-1.26498
 11
-2.76253
 21
-1.09378
  0
LINE
  8
0
 10
-2.76253
 20
-1.09378
 11
-2.82579
 21
-0.91806
  0
LINE
  8
0
 10
-2.82579
 20
-0.91806
 11
-2.87781
 21
-0.738998
  0
LINE
  8
0
 10
-2.87781
 20
-0.738998
 11
-2.91856
 21
-0.556656
  0
LINE
  8
0
 10
-2.91856
 20
-0.556656
 11
-2.94774
 21
-0.372437
  0
LINE
  8
0
 10
-2.94774
 20
-0.372437
 11
-2.96532
 21
-0.186676
  0
LINE
  8
0
 10
-2.96532
 20
-0.186676
 11
-2.97118
 21
0
  0
LINE
  8
0
 10
-2.97118
 20
0
 11
-2.96532
 21
0.186676
  0
LINE
  8
0
 10
-2.96532
 20
0.186676
 11
-2.94774
 21
0.372437
  0
LINE
  8
0
 10
-2.94774
 20
0.372437
 11
-2.91856
 21
0.556656
  0
LINE
  8
0
 10
-2.91856
 20
0.556656
 11
-2.87781
 21
0.738998
  0
LINE
  8
0
 10
-2.87781
 20
0.738998
 11
-2.82579
 21
0.91806
  0
LINE
  8
0
 10
-2.82579
 20
0.91806
 11
-2.76253
 21
1.09378
  0
LINE
  8
0
 10
-2.76253
 20
1.09378
 11
-2.68843
 21
1.26498
  0
LINE
  8
0
 10
-2.68843
 20
1.26498
 11
-2.60367
 21
1.43134
  0
LINE
  8
0
 10
-2.60367
 20
1.43134
 11
-2.50859
 21
1.59212
  0
LINE
  8
0
 10
-2.50859
 20
1.59212
 11
-2.40372
 21
1.74646
  0
LINE
  8
0
 10
-2.40372
 20
1.74646
 11
-2.28937
 21
1.89386
  0
LINE
  8
0
 10
-2.28937
 20
1.89386
 11
-2.16599
 21
2.03381
  0
LINE
  8
0
 10
-2.16599
 20
2.03381
 11
-2.03381
 21
2.16599
  0
LINE
  8
0
 10
-2.03381
 20
2.16599
 11
-1.89386
 21
2.28937
  0
LINE
  8
0
 10
-1.89386
 20
2.28937
 11
-1.74646
 21
2.40372
  0
LINE
  8
0
 10
-1.74646
 20
2.40372
 11
-1.59212
 21
2.50859
  0
LINE
  8
0
 10
-1.59212
 20
2.50859
 11
-1.43134
 21
2.60367
  0
LINE
  8
0
 10
-1.43134
 20
2.60367
 11
-1.26498
 21
2.68843
  0
LINE
  8
0
 10
-1.26498
 20
2.68843
 11
-1.09378
 21
2.76253
  0
LINE
  8
0
 10
-1.09378
 20
2.76253
 11
-0.91806
 21
2.82579
  0
LINE
  8
0
 10
-0.91806
 20
2.82579
 11
-0.738998
 21
2.87781
  0
LINE
  8
0
 10
-0.738998
 20
2.87781
 11
-0.556656
 21
2.91856
  0
LINE
  8
0
 10
-0.556656
 20
2.91856
 11
-0.372437
 21
2.94774
  0
LINE
  8
0
 10
-0.372437
 20
2.94774
 11
-0.186676
 21
2.96532
  0
LINE
  8
0
 10
-0.186676
 20
2.96532
 11
0
 21
2.97118
  0
LINE
  8
0
 10
0
 20
2.97118
 11
0.186676
 21
2.96532
  0
LINE
  8
0
 10
0.186676
 20
2.96532
 11
0.372437
 21
2.94774
  0
LINE
  8
0
 10
0.372437
 20
2.94774
 11
0.556656
 21
2.91856
  0
LINE
  8
0
 10
0.556656
 20
2.91856
 11
0.738998
 21
2.87781
  0
LINE
  8
0
 10
0.738998
 20
2.87781
 11
0.91806
 21
2.82579
  0
LINE
  8
0
 10
0.91806
 20
2.82579
 11
1.09378
 21
2.76253
  0
LINE
  8
0
 10
1.09378
 20
2.76253
 11
1.26498
 21
2.68843
  0
LINE
  8
0
 10
1.26498
 20
2.68843
 11
1.43134
 21
2.60367
  0
LINE
  8
0
 10
1.43134
 20
2.60367
 11
1.59212
 21
2.50859
  0
LINE
  8
0
 10
1.59212
 20
2.50859
 11
1.74646
 21
2.40372
  0
LINE
  8
0
 10
1.74646
 20
2.40372
 11
1.89386
 21
2.28937
  0
LINE
  8
0
 10
1.89386
 20
2.28937
 11
2.03381
 21
2.16599
  0
LINE
  8
0
 10
2.03381
 20
2.16599
 11
2.16599
 21
2.03381
  0
LINE
  8
0
 10
2.16599
 20
2.03381
 11
2.28937
 21
1.89386
  0
LINE
  8
0
 10
2.28937
 20
1.89386
 11
2.40372
 21
1.74646
  0
LINE
  8
0
 10
2.40372
 20
1.74646
 11
2.50859
 21
1.59212
  0
LINE
  8
0
 10
2.50859
 20
1.59212
 11
2.60367
 21
1.43134
  0
LINE
  8
0
 10
2.60367
 20
1.43134
 11
2.68843
 21
1.26498
  0
LINE
  8
0
 10
2.68843
 20
1.26498
 11
2.76253
 21
1.09378
  0
LINE
  8
0
 10
2.76253
 20
1.09378
 11
2.82579
 21
0.91806
  0
LINE
  8
0
 10
2.82579
 20
0.91806
 11
2.87781
 21
0.738998
  0
LINE
  8
0
 10
2.87781
 20
0.738998
 11
2.91856
 21
0.556656
  0
LINE
  8
0
 10
2.91856
 20
0.556656
 11
2.94774
 21
0.372437
  0
LINE
  8
0
 10
2.94774
 20
0.372437
 11
2.96532
 21
0.186676
  0
LINE
  8
0
 10
2.96532
 20
0.186676
 11
2.97118
 21
0
  0
LINE
  8
0
 10
2.97118
 20
0
 11
2.96532
 21
-0.186676
  0
LINE
  8
0
 10
2.96532
 20
-0.186676
 11
2.94774
 21
-0.372437
  0
LINE
  8
0
 10
2.94774
 20
-0.372437
 11
2.91856
 21
-0.556656
  0
LINE
  8
0
 10
2.91856
 20
-0.556656
 11
2.87781
 21
-0.738998
  0
LINE
  8
0
 10
2.87781
 20
-0.738998
 11
2.82579
 21
-0.91806
  0
LINE
  8
0
 10
2.82579
 20
-0.91806
 11
2.76253
 21
-1.09378
  0
LINE
  8
0
 10
2.76253
 20
-1.09378
 11
2.68843
 21
-1.26498
  0
LINE
  8
0
 10
2.68843
 20
-1.26498
 11
2.60367
 21
-1.43134
  0
LINE
  8
0
 10
2.60367
 20
-1.43134
 11
2.50859
 21
-1.59212
  0
LINE
  8
0
 10
2.50859
 20
-1.59212
 11
2.40372
 21
-1.74646
  0
LINE
  8
0
 10
2.40372
 20
-1.74646
 11
2.28937
 21
-1.89386
  0
LINE
  8
0
 10
2.28937
 20
-1.89386
 11
2.16599
 21
-2.03381
  0
LINE
  8
0
 10
2.16599
 20
-2.03381
 11
2.03381
 21
-2.16599
  0
LINE
  8
0
 10
2.03381
 20
-2.16599
 11
1.89386
 21
-2.28937
  0
LINE
  8
0
 10
1.89386
 20
-2.28937
 11
1.74646
 21
-2.40372
  0
LINE
  8
0
 10
1.74646
 20
-2.40372
 11
1.59212
 21
-2.50859
  0
LINE
  8
0
 10
1.59212
 20
-2.50859
 11
1.43134
 21
-2.60367
  0
LINE
  8
0
 10
1.43134
 20
-2.60367
 11
1.26498
 21
-2.68843
  0
LINE
  8
0
 10
1.26498
 20
-2.68843
 11
1.09378
 21
-2.76253
  0
LINE
  8
0
 10
1.09378
 20
-2.76253
 11
0.91806
 21
-2.82579
  0
LINE
  8
0
 10
0.91806
 20
-2.82579
 11
0.738998
 21
-2.87781
  0
LINE
  8
0
 10
0.738998
 20
-2.87781
 11
0.556656
 21
-2.91856
  0
LINE
  8
0
 10
0.556656
 20
-2.91856
 11
0.372437
 21
-2.94774
  0
LINE
  8
0
 10
0.372437
 20
-2.94774
 11
0.186676
 21
-2.96532
  0
LINE
  8
0
 10
0.186676
 20
-2.96532
 11
0
 21
-2.97118
  0
LINE
  8
0
 10
0
 20
-2.97118
 11
-0.186676
 21
-2.96532
  0
ENDSEC
  0
SECTION
  2
OBJECTS
  0
DICTIONARY
  0
ENDSEC
  0
EOF
