  0
SECTION
  2
BLOCKS
  0
ENDSEC
  0
SECTION
  2
ENTITIES
  0
LINE
  8
0
 10
0.943665
 20
-14.9991
 11
1.88361
 21
-14.9103
  0
LINE
  8
0
 10
1.88361
 20
-14.9103
 11
2.8161
 21
-14.7626
  0
LINE
  8
0
 10
2.8161
 20
-14.7626
 11
3.7375
 21
-14.5566
  0
LINE
  8
0
 10
3.7375
 20
-14.5566
 11
4.64415
 21
-14.2932
  0
LINE
  8
0
 10
4.64415
 20
-14.2932
 11
5.53246
 21
-13.9734
  0
LINE
  8
0
 10
5.53246
 20
-13.9734
 11
5.56184
 21
-13.9607
  0
LINE
  8
0
 10
5.56184
 20
-13.9607
 11
5.8336
 21
-12.9465
  0
LINE
  8
0
 10
5.8336
 20
-12.9465
 11
3.2836
 21
-8.52975
  0
LINE
  8
0
 10
3.2836
 20
-8.52975
 11
5.74518
 21
-7.10857
  0
LINE
  8
0
 10
5.74518
 20
-7.10857
 11
8.29517
 21
-11.5253
  0
LINE
  8
0
 10
8.29517
 20
-11.5253
 11
9.30222
 21
-11.7951
  0
LINE
  8
0
 10
9.30222
 20
-11.7951
 11
9.57971
 21
-11.5799
  0
LINE
  8
0
 10
9.57971
 20
-11.5799
 11
10.2879
 21
-10.9555
  0
LINE
  8
0
 10
10.2879
 20
-10.9555
 11
10.9555
 21
-10.2879
  0
LINE
  8
0
 10
10.9555
 20
-10.2879
 11
11.5799
 21
-9.57971
  0
LINE
  8
0
 10
11.5799
 20
-9.57971
 11
12.1586
 21
-8.83369
  0
LINE
  8
0
 10
12.1586
 20
-8.83369
 11
12.6892
 21
-8.05283
  0
LINE
  8
0
 10
12.6892
 20
-8.05283
 11
13.1698
 21
-7.24017
  0
LINE
  8
0
 10
13.1698
 20
-7.24017
 11
13.5984
 21
-6.39894
  0
LINE
  8
0
 10
13.5984
 20
-6.39894
 11
13.9734
 21
-5.53246
  0
LINE
  8
0
 10
13.9734
 20
-5.53246
 11
14.2932
 21
-4.64415
  0
LINE
  8
0
 10
14.2932
 20
-4.64415
 11
14.5566
 21
-3.7375
  0
LINE
  8
0
 10
14.5566
 20
-3.7375
 11
14.7626
 21
-2.8161
  0
LINE
  8
0
 10
14.7626
 20
-2.8161
 11
14.8667
 21
-2.15906
  0
LINE
  8
0
 10
14.8667
 20
-2.15906
 11
14.1288
 21
-1.42119
  0
LINE
  8
0
 10
14.1288
 20
-1.42119
 11
9.02879
 21
-1.42119
  0
LINE
  8
0
 10
9.02879
 20
-1.42119
 11
9.02879
 21
1.42119
  0
LINE
  8
0
 10
9.02879
 20
1.42119
 11
14.1288
 21
1.42119
  0
LINE
  8
0
 10
14.1288
 20
1.42119
 11
14.8667
 21
2.15906
  0
LINE
  8
0
 10
14.8667
 20
2.15906
 11
14.7626
 21
2.8161
  0
LINE
  8
0
 10
14.7626
 20
2.8161
 11
14.5566
 21
3.7375
  0
LINE
  8
0
 10
14.5566
 20
3.7375
 11
14.2932
 21
4.64415
  0
LINE
  8
0
 10
14.2932
 20
4.64415
 11
13.9734
 21
5.53246
  0
LINE
  8
0
 10
13.9734
 20
5.53246
 11
13.5984
 21
6.39894
  0
LINE
  8
0
 10
13.5984
 20
6.39894
 11
13.1698
 21
7.24017
  0
LINE
  8
0
 10
13.1698
 20
7.24017
 11
12.6892
 21
8.05283
  0
LINE
  8
0
 10
12.6892
 20
8.05283
 11
12.1586
 21
8.83369
  0
LINE
  8
0
 10
12.1586
 20
8.83369
 11
11.5799
 21
9.57971
  0
LINE
  8
0
 10
11.5799
 20
9.57971
 11
10.9555
 21
10.2879
  0
LINE
  8
0
 10
10.9555
 20
10.2879
 11
10.2879
 21
10.9555
  0
LINE
  8
0
 10
10.2879
 20
10.9555
 11
9.57971
 21
11.5799
  0
LINE
  8
0
 10
9.57971
 20
11.5799
 11
9.30222
 21
11.7951
  0
LINE
  8
0
 10
9.30222
 20
11.7951
 11
8.29517
 21
11.5253
  0
LINE
  8
0
 10
8.29517
 20
11.5253
 11
5.74518
 21
7.10857
  0
LINE
  8
0
 10
5.74518
 20
7.10857
 11
3.2836
 21
8.52975
  0
LINE
  8
0
 10
3.2836
 20
8.52975
 11
5.8336
 21
12.9465
  0
LINE
  8
0
 10
5.8336
 20
12.9465
 11
5.56184
 21
13.9607
  0
LINE
  8
0
 10
5.56184
 20
13.9607
 11
5.53246
 21
13.9734
  0
LINE
  8
0
 10
5.53246
 20
13.9734
 11
4.64415
 21
14.2932
  0
LINE
  8
0
 10
4.64415
 20
14.2932
 11
3.7375
 21
14.5566
  0
LINE
  8
0
 10
3.7375
 20
14.5566
 11
2.8161
 21
14.7626
  0
LINE
  8
0
 10
2.8161
 20
14.7626
 11
1.88361
 21
14.9103
  0
LINE
  8
0
 10
1.88361
 20
14.9103
 11
0.943665
 21
14.9991
  0
LINE
  8
0
 10
0.943665
 20
14.9991
 11
0
 21
15.0288
  0
LINE
  8
0
 10
0
 20
15.0288
 11
-0.943665
 21
14.9991
  0
LINE
  8
0
 10
-0.943665
 20
14.9991
 11
-1.88361
 21
14.9103
  0
LINE
  8
0
 10
-1.88361
 20
14.9103
 11
-2.8161
 21
14.7626
  0
LINE
  8
0
 10
-2.8161
 20
14.7626
 11
-3.7375
 21
14.5566
  0
LINE
  8
0
 10
-3.7375
 20
14.5566
 11
-4.64415
 21
14.2932
  0
LINE
  8
0
 10
-4.64415
 20
14.2932
 11
-5.53246
 21
13.9734
  0
LINE
  8
0
 10
-5.53246
 20
13.9734
 11
-5.56184
 21
13.9607
  0
LINE
  8
0
 10
-5.56184
 20
13.9607
 11
-5.8336
 21
12.9465
  0
LINE
  8
0
 10
-5.8336
 20
12.9465
 11
-3.2836
 21
8.52975
  0
LINE
  8
0
 10
-3.2836
 20
8.52975
 11
-5.74518
 21
7.10857
  0
LINE
  8
0
 10
-5.74518
 20
7.10857
 11
-8.29517
 21
11.5253
  0
LINE
  8
0
 10
-8.29517
 20
11.5253
 11
-9.30222
 21
11.7951
  0
LINE
  8
0
 10
-9.30222
 20
11.7951
 11
-9.57971
 21
11.5799
  0
LINE
  8
0
 10
-9.57971
 20
11.5799
 11
-10.2879
 21
10.9555
  0
LINE
  8
0
 10
-10.2879
 20
10.9555
 11
-10.9555
 21
10.2879
  0
LINE
  8
0
 10
-10.9555
 20
10.2879
 11
-11.5799
 21
9.57971
  0
LINE
  8
0
 10
-11.5799
 20
9.57971
 11
-12.1586
 21
8.83369
  0
LINE
  8
0
 10
-12.1586
 20
8.83369
 11
-12.6892
 21
8.05283
  0
LINE
  8
0
 10
-12.6892
 20
8.05283
 11
-13.1698
 21
7.24017
  0
LINE
  8
0
 10
-13.1698
 20
7.24017
 11
-13.5984
 21
6.39894
  0
LINE
  8
0
 10
-13.5984
 20
6.39894
 11
-13.9734
 21
5.53246
  0
LINE
  8
0
 10
-13.9734
 20
5.53246
 11
-14.2932
 21
4.64415
  0
LINE
  8
0
 10
-14.2932
 20
4.64415
 11
-14.5566
 21
3.7375
  0
LINE
  8
0
 10
-14.5566
 20
3.7375
 11
-14.7626
 21
2.8161
  0
LINE
  8
0
 10
-14.7626
 20
2.8161
 11
-14.8667
 21
2.15906
  0
LINE
  8
0
 10
-14.8667
 20
2.15906
 11
-14.1288
 21
1.42119
  0
LINE
  8
0
 10
-14.1288
 20
1.42119
 11
-9.02879
 21
1.42119
  0
LINE
  8
0
 10
-9.02879
 20
1.42119
 11
-9.02879
 21
-1.42117
  0
LINE
  8
0
 10
-9.02879
 20
-1.42117
 11
-14.1288
 21
-1.42117
  0
LINE
  8
0
 10
-14.1288
 20
-1.42117
 11
-14.8667
 21
-2.15904
  0
LINE
  8
0
 10
-14.8667
 20
-2.15904
 11
-14.7626
 21
-2.8161
  0
LINE
  8
0
 10
-14.7626
 20
-2.8161
 11
-14.5566
 21
-3.7375
  0
LINE
  8
0
 10
-14.5566
 20
-3.7375
 11
-14.2932
 21
-4.64415
  0
LINE
  8
0
 10
-14.2932
 20
-4.64415
 11
-13.9734
 21
-5.53246
  0
LINE
  8
0
 10
-13.9734
 20
-5.53246
 11
-13.5984
 21
-6.39894
  0
LINE
  8
0
 10
-13.5984
 20
-6.39894
 11
-13.1698
 21
-7.24017
  0
LINE
  8
0
 10
-13.1698
 20
-7.24017
 11
-12.6892
 21
-8.05283
  0
LINE
  8
0
 10
-12.6892
 20
-8.05283
 11
-12.1586
 21
-8.83369
  0
LINE
  8
0
 10
-12.1586
 20
-8.83369
 11
-11.5799
 21
-9.57971
  0
LINE
  8
0
 10
-11.5799
 20
-9.57971
 11
-10.9555
 21
-10.2879
  0
LINE
  8
0
 10
-10.9555
 20
-10.2879
 11
-10.2879
 21
-10.9555
  0
LINE
  8
0
 10
-10.2879
 20
-10.9555
 11
-9.57971
 21
-11.5799
  0
LINE
  8
0
 10
-9.57971
 20
-11.5799
 11
-9.30222
 21
-11.7951
  0
LINE
  8
0
 10
-9.30222
 20
-11.7951
 11
-8.29517
 21
-11.5253
  0
LINE
  8
0
 10
-8.29517
 20
-11.5253
 11
-5.74518
 21
-7.10857
  0
LINE
  8
0
 10
-5.74518
 20
-7.10857
 11
-3.2836
 21
-8.52975
  0
LINE
  8
0
 10
-3.2836
 20
-8.52975
 11
-5.8336
 21
-12.9465
  0
LINE
  8
0
 10
-5.8336
 20
-12.9465
 11
-5.56184
 21
-13.9607
  0
LINE
  8
0
 10
-5.56184
 20
-13.9607
 11
-5.53246
 21
-13.9734
  0
LINE
  8
0
 10
-5.53246
 20
-13.9734
 11
-4.64415
 21
-14.2932
  0
LINE
  8
0
 10
-4.64415
 20
-14.2932
 11
-3.7375
 21
-14.5566
  0
LINE
  8
0
 10
-3.7375
 20
-14.5566
 11
-2.8161
 21
-14.7626
  0
LINE
  8
0
 10
-2.8161
 20
-14.7626
 11
-1.88361
 21
-14.9103
  0
LINE
  8
0
 10
-1.88361
 20
-14.9103
 11
-0.943665
 21
-14.9991
  0
LINE
  8
0
 10
-0.943665
 20
-14.9991
 11
0
 21
-15.0288
  0
LINE
  8
0
 10
0
 20
-15.0288
 11
0.943665
 21
-14.9991
  0
LINE
  8
0
 10
-0.25116
 20
-3.9921
 11
-0.501328
 21
-3.96844
  0
LINE
  8
0
 10
-0.501328
 20
-3.96844
 11
-0.749512
 21
-3.92914
  0
LINE
  8
0
 10
-0.749512
 20
-3.92914
 11
-0.994751
 21
-3.87433
  0
LINE
  8
0
 10
-0.994751
 20
-3.87433
 11
-1.23605
 21
-3.80421
  0
LINE
  8
0
 10
-1.23605
 20
-3.80421
 11
-1.47249
 21
-3.7191
  0
LINE
  8
0
 10
-1.47249
 20
-3.7191
 11
-1.70311
 21
-3.61929
  0
LINE
  8
0
 10
-1.70311
 20
-3.61929
 11
-1.927
 21
-3.50522
  0
LINE
  8
0
 10
-1.927
 20
-3.50522
 11
-2.1433
 21
-3.3773
  0
LINE
  8
0
 10
-2.1433
 20
-3.3773
 11
-2.35114
 21
-3.23605
  0
LINE
  8
0
 10
-2.35114
 20
-3.23605
 11
-2.54968
 21
-3.08205
  0
LINE
  8
0
 10
-2.54968
 20
-3.08205
 11
-2.73817
 21
-2.91586
  0
LINE
  8
0
 10
-2.73817
 20
-2.91586
 11
-2.91586
 21
-2.73817
  0
LINE
  8
0
 10
-2.91586
 20
-2.73817
 11
-3.08205
 21
-2.54968
  0
LINE
  8
0
 10
-3.08205
 20
-2.54968
 11
-3.23605
 21
-2.35114
  0
LINE
  8
0
 10
-3.23605
 20
-2.35114
 11
-3.3773
 21
-2.1433
  0
LINE
  8
0
 10
-3.3773
 20
-2.1433
 11
-3.50522
 21
-1.927
  0
LINE
  8
0
 10
-3.50522
 20
-1.927
 11
-3.61929
 21
-1.70311
  0
LINE
  8
0
 10
-3.61929
 20
-1.70311
 11
-3.7191
 21
-1.47249
  0
LINE
  8
0
 10
-3.7191
 20
-1.47249
 11
-3.80421
 21
-1.23605
  0
LINE
  8
0
 10
-3.80421
 20
-1.23605
 11
-3.87433
 21
-0.994751
  0
LINE
  8
0
 10
-3.87433
 20
-0.994751
 11
-3.92914
 21
-0.749512
  0
LINE
  8
0
 10
-3.92914
 20
-0.749512
 11
-3.96844
 21
-0.501328
  0
LINE
  8
0
 10
-3.96844
 20
-0.501328
 11
-3.9921
 21
-0.25116
  0
LINE
  8
0
 10
-3.9921
 20
-0.25116
 11
-4
 21
0
  0
LINE
  8
0
 10
-4
 20
0
 11
-3.9921
 21
0.25116
  0
LINE
  8
0
 10
-3.9921
 20
0.25116
 11
-3.96844
 21
0.501328
  0
LINE
  8
0
 10
-3.96844
 20
0.501328
 11
-3.92914
 21
0.749512
  0
LINE
  8
0
 10
-3.92914
 20
0.749512
 11
-3.87433
 21
0.994751
  0
LINE
  8
0
 10
-3.87433
 20
0.994751
 11
-3.80421
 21
1.23605
  0
LINE
  8
0
 10
-3.80421
 20
1.23605
 11
-3.7191
 21
1.47249
  0
LINE
  8
0
 10
-3.7191
 20
1.47249
 11
-3.61929
 21
1.70311
  0
LINE
  8
0
 10
-3.61929
 20
1.70311
 11
-3.50522
 21
1.927
  0
LINE
  8
0
 10
-3.50522
 20
1.927
 11
-3.3773
 21
2.1433
  0
LINE
  8
0
 10
-3.3773
 20
2.1433
 11
-3.23605
 21
2.35114
  0
LINE
  8
0
 10
-3.23605
 20
2.35114
 11
-3.08205
 21
2.54968
  0
LINE
  8
0
 10
-3.08205
 20
2.54968
 11
-2.91586
 21
2.73817
  0
LINE
  8
0
 10
-2.91586
 20
2.73817
 11
-2.73817
 21
2.91586
  0
LINE
  8
0
 10
-2.73817
 20
2.91586
 11
-2.54968
 21
3.08205
  0
LINE
  8
0
 10
-2.54968
 20
3.08205
 11
-2.35114
 21
3.23605
  0
LINE
  8
0
 10
-2.35114
 20
3.23605
 11
-2.1433
 21
3.3773
  0
LINE
  8
0
 10
-2.1433
 20
3.3773
 11
-1.927
 21
3.50522
  0
LINE
  8
0
 10
-1.927
 20
3.50522
 11
-1.70311
 21
3.61929
  0
LINE
  8
0
 10
-1.70311
 20
3.61929
 11
-1.47249
 21
3.7191
  0
LINE
  8
0
 10
-1.47249
 20
3.7191
 11
-1.23605
 21
3.80421
  0
LINE
  8
0
 10
-1.23605
 20
3.80421
 11
-0.994751
 21
3.87433
  0
LINE
  8
0
 10
-0.994751
 20
3.87433
 11
-0.749512
 21
3.92914
  0
LINE
  8
0
 10
-0.749512
 20
3.92914
 11
-0.501328
 21
3.96844
  0
LINE
  8
0
 10
-0.501328
 20
3.96844
 11
-0.25116
 21
3.9921
  0
LINE
  8
0
 10
-0.25116
 20
3.9921
 11
0
 21
4
  0
LINE
  8
0
 10
0
 20
4
 11
0.25116
 21
3.9921
  0
LINE
  8
0
 10
0.25116
 20
3.9921
 11
0.501328
 21
3.96844
  0
LINE
  8
0
 10
0.501328
 20
3.96844
 11
0.749512
 21
3.92914
  0
LINE
  8
0
 10
0.749512
 20
3.92914
 11
0.994751
 21
3.87433
  0
LINE
  8
0
 10
0.994751
 20
3.87433
 11
1.23605
 21
3.80421
  0
LINE
  8
0
 10
1.23605
 20
3.80421
 11
1.47249
 21
3.7191
  0
LINE
  8
0
 10
1.47249
 20
3.7191
 11
1.70311
 21
3.61929
  0
LINE
  8
0
 10
1.70311
 20
3.61929
 11
1.927
 21
3.50522
  0
LINE
  8
0
 10
1.927
 20
3.50522
 11
2.1433
 21
3.3773
  0
LINE
  8
0
 10
2.1433
 20
3.3773
 11
2.35114
 21
3.23605
  0
LINE
  8
0
 10
2.35114
 20
3.23605
 11
2.54968
 21
3.08205
  0
LINE
  8
0
 10
2.54968
 20
3.08205
 11
2.73817
 21
2.91586
  0
LINE
  8
0
 10
2.73817
 20
2.91586
 11
2.91586
 21
2.73817
  0
LINE
  8
0
 10
2.91586
 20
2.73817
 11
3.08205
 21
2.54968
  0
LINE
  8
0
 10
3.08205
 20
2.54968
 11
3.23605
 21
2.35114
  0
LINE
  8
0
 10
3.23605
 20
2.35114
 11
3.3773
 21
2.1433
  0
LINE
  8
0
 10
3.3773
 20
2.1433
 11
3.50522
 21
1.927
  0
LINE
  8
0
 10
3.50522
 20
1.927
 11
3.61929
 21
1.70311
  0
LINE
  8
0
 10
3.61929
 20
1.70311
 11
3.7191
 21
1.47249
  0
LINE
  8
0
 10
3.7191
 20
1.47249
 11
3.80421
 21
1.23605
  0
LINE
  8
0
 10
3.80421
 20
1.23605
 11
3.87433
 21
0.994751
  0
LINE
  8
0
 10
3.87433
 20
0.994751
 11
3.92914
 21
0.749512
  0
LINE
  8
0
 10
3.92914
 20
0.749512
 11
3.96844
 21
0.501328
  0
LINE
  8
0
 10
3.96844
 20
0.501328
 11
3.9921
 21
0.25116
  0
LINE
  8
0
 10
3.9921
 20
0.25116
 11
4
 21
0
  0
LINE
  8
0
 10
4
 20
0
 11
3.9921
 21
-0.25116
  0
LINE
  8
0
 10
3.9921
 20
-0.25116
 11
3.96844
 21
-0.501328
  0
LINE
  8
0
 10
3.96844
 20
-0.501328
 11
3.92914
 21
-0.749512
  0
LINE
  8
0
 10
3.92914
 20
-0.749512
 11
3.87433
 21
-0.994751
  0
LINE
  8
0
 10
3.87433
 20
-0.994751
 11
3.80421
 21
-1.23605
  0
LINE
  8
0
 10
3.80421
 20
-1.23605
 11
3.7191
 21
-1.47249
  0
LINE
  8
0
 10
3.7191
 20
-1.47249
 11
3.61929
 21
-1.70311
  0
LINE
  8
0
 10
3.61929
 20
-1.70311
 11
3.50522
 21
-1.927
  0
LINE
  8
0
 10
3.50522
 20
-1.927
 11
3.3773
 21
-2.1433
  0
LINE
  8
0
 10
3.3773
 20
-2.1433
 11
3.23605
 21
-2.35114
  0
LINE
  8
0
 10
3.23605
 20
-2.35114
 11
3.08205
 21
-2.54968
  0
LINE
  8
0
 10
3.08205
 20
-2.54968
 11
2.91586
 21
-2.73817
  0
LINE
  8
0
 10
2.91586
 20
-2.73817
 11
2.73817
 21
-2.91586
  0
LINE
  8
0
 10
2.73817
 20
-2.91586
 11
2.54968
 21
-3.08205
  0
LINE
  8
0
 10
2.54968
 20
-3.08205
 11
2.35114
 21
-3.23605
  0
LINE
  8
0
 10
2.35114
 20
-3.23605
 11
2.1433
 21
-3.3773
  0
LINE
  8
0
 10
2.1433
 20
-3.3773
 11
1.927
 21
-3.50522
  0
LINE
  8
0
 10
1.927
 20
-3.50522
 11
1.70311
 21
-3.61929
  0
LINE
  8
0
 10
1.70311
 20
-3.61929
 11
1.47249
 21
-3.7191
  0
LINE
  8
0
 10
1.47249
 20
-3.7191
 11
1.23605
 21
-3.80421
  0
LINE
  8
0
 10
1.23605
 20
-3.80421
 11
0.994751
 21
-3.87433
  0
LINE
  8
0
 10
0.994751
 20
-3.87433
 11
0.749512
 21
-3.92914
  0
LINE
  8
0
 10
0.749512
 20
-3.92914
 11
0.501328
 21
-3.96844
  0
LINE
  8
0
 10
0.501328
 20
-3.96844
 11
0.25116
 21
-3.9921
  0
LINE
  8
0
 10
0.25116
 20
-3.9921
 11
0
 21
-4
  0
LINE
  8
0
 10
0
 20
-4
 11
-0.25116
 21
-3.9921
  0
ENDSEC
  0
SECTION
  2
OBJECTS
  0
DICTIONARY
  0
ENDSEC
  0
EOF
